<svg width="24" height="24" viewBox="0 0 24 24" fill="none" xmlns="http://www.w3.org/2000/svg">
<path d="M24 18C24 18.7072 23.719 19.3855 23.219 19.8856C22.7189 20.3857 22.0406 20.6666 21.3333 20.6666H2.66667C1.95942 20.6666 1.28115 20.3857 0.781049 19.8856C0.280952 19.3855 0 18.7072 0 18V5.99998C0 5.29274 0.280952 4.61446 0.781049 4.11436C1.28115 3.61426 1.95942 3.33331 2.66667 3.33331H21.3333C22.0406 3.33331 22.7189 3.61426 23.219 4.11436C23.719 4.61446 24 5.29274 24 5.99998V18Z" fill="#141414"/>
<path d="M0 8.66669H24V15.3334H0V8.66669Z" fill="#EEEEEE"/>
<path d="M21.3333 3.33331H2.66667C1.95942 3.33331 1.28115 3.61426 0.781049 4.11436C0.280952 4.61446 0 5.29274 0 5.99998L0 8.66665H24V5.99998C24 5.29274 23.719 4.61446 23.219 4.11436C22.7189 3.61426 22.0406 3.33331 21.3333 3.33331Z" fill="#CE1225"/>
<path d="M9.83331 14.3747C9.83331 14.3747 9.84398 14.5414 9.98931 14.6247C9.98931 14.6247 9.94798 14.75 10.104 14.8227C10.26 14.8954 10.8226 15.01 11.802 15.01C12.7813 15.01 13.3333 14.906 13.4793 14.8327C13.6253 14.76 13.6353 14.5934 13.6353 14.5934C13.6353 14.5934 13.7913 14.51 13.7813 14.406C13.7713 14.302 13.5626 14.1874 13.5626 14.1874C13.5626 14.1874 13.5106 14.052 13.3646 14C13.2186 13.948 12.75 14.2294 11.854 14.1874C10.958 14.1454 10.448 14.01 10.2813 14.0207C10.1146 14.0314 10.042 14.198 10.042 14.198C10.042 14.198 9.85398 14.2814 9.83331 14.3747Z" fill="#BF9300"/>
<path d="M9.94797 14.3647C9.93931 14.4267 10.0733 14.5627 10.0733 14.5627C10.0733 14.5627 10.0733 14.7187 10.2086 14.7607C10.344 14.8027 10.896 14.9067 11.792 14.896C12.688 14.8853 13.3233 14.8333 13.396 14.7707C13.4686 14.708 13.5313 14.5727 13.5313 14.5727C13.5313 14.5727 13.6773 14.4687 13.6666 14.3853C13.656 14.302 13.448 14.25 13.448 14.25C13.448 14.25 13.3893 14.1247 13.32 14.0727C13.2506 14.0207 12.8026 14.2807 11.844 14.2807C10.906 14.2807 10.3646 14.0513 10.2713 14.062C10.178 14.0727 10.1153 14.2493 10.1153 14.2493C10.1153 14.2493 9.95864 14.292 9.94797 14.3647Z" fill="#EEEEEE"/>
<path d="M13.906 10.3227C13.906 10.3227 13.8854 9.83334 13.4374 9.89534C12.9894 9.958 12.958 10.1767 12.4787 10.2287L12.38 10.238C12.3001 10.0212 12.256 9.79292 12.2494 9.562C12.2494 9.24934 12.3434 9.114 12.02 8.958C11.6974 8.802 11.6347 8.94733 11.6347 8.94733C11.6347 8.94733 11.3847 8.822 11.27 8.916C11.1554 9.01 11.218 9.24934 11.27 9.17667C11.322 9.104 11.5307 9.312 11.5307 9.312C11.6014 9.658 11.4007 10.0327 11.2634 10.2413C11.216 10.2367 11.178 10.2347 11.1247 10.2287C10.6454 10.1767 10.614 9.958 10.166 9.89534C9.71802 9.83267 9.69735 10.3227 9.69735 10.3227L9.52002 14.104L9.88469 13.8227L9.88669 13.778L10.6454 13.104L10.772 12.9773L10.458 13.8953C10.458 13.8953 9.97869 13.864 10.114 14.2493C10.114 14.2493 10.1867 14.0307 10.312 14.072C10.4374 14.1133 10.8014 14.2073 10.8014 14.2073L10.9267 14.4053L11.0827 14.2593L11.572 14.2387C11.572 14.2387 11.728 14.28 11.718 14.416C11.7465 14.3575 11.7552 14.2912 11.7427 14.2273L11.89 14.2173C11.8745 14.2844 11.8825 14.3548 11.9127 14.4167C11.902 14.2813 12.0587 14.2393 12.0587 14.2393L12.548 14.26L12.7047 14.406L12.83 14.208C12.83 14.208 13.194 14.114 13.3187 14.0727C13.4434 14.0313 13.5167 14.25 13.5167 14.25C13.652 13.8647 13.1727 13.896 13.1727 13.896L12.8734 13.0207L12.9574 13.1047L13.716 13.7787L13.718 13.8233L14.0827 14.1047L13.906 10.3227ZM11.8347 12.6147C11.0834 12.1507 11.0214 10.9793 11.0214 10.9793C11.0214 10.9793 11.486 10.9553 11.8234 10.7187C12.1274 10.9887 12.646 10.958 12.646 10.958C12.646 10.958 12.6107 12.134 11.8347 12.6147ZM13.552 10.1773L12.9167 10.7813L12.81 10.824C12.7007 10.828 12.1687 10.8293 11.8334 10.5313C11.4167 10.8233 10.844 10.844 10.844 10.844L10.7554 10.8087L10.052 10.1773L9.86735 10.2533C9.87535 10.178 9.91669 10.0087 10.146 10.042C10.522 10.096 10.6774 10.3027 11.0734 10.344L11.1854 10.3553L11.146 10.406C11.2074 10.406 11.298 10.388 11.3647 10.3733L11.44 10.3807L11.406 10.4993C11.4594 10.4833 11.5367 10.4373 11.6 10.3967L11.7734 10.4133L11.8127 10.468L11.9447 10.402L12.0334 10.3933C12.11 10.438 12.2194 10.478 12.2194 10.478L12.24 10.374C12.334 10.4367 12.49 10.4367 12.49 10.4367C12.472 10.422 12.454 10.3847 12.4354 10.3527L12.5314 10.3427C12.9274 10.3013 13.082 10.0947 13.4587 10.0407C13.688 10.008 13.7294 10.1767 13.7374 10.252L13.552 10.1773Z" fill="#BF9300"/>
<path d="M11.5833 12.594L11.208 14.0207L10.5833 13.896L11.2293 12.0627L11.5833 12.594ZM12.0493 12.594L12.424 14.0207L13.0493 13.896L12.4033 12.0627L12.0493 12.594Z" fill="#EEEEEE"/>
<path d="M11.1773 11.094C11.1773 11.094 11.2293 11.698 11.5 12.1667V10.9587C11.5 10.9587 11.3226 11.0627 11.1773 11.094ZM12.4793 11.1147C12.4793 11.1147 12.4273 11.7187 12.1566 12.1873V10.9793C12.156 10.9793 12.3333 11.0833 12.4793 11.1147Z" fill="#BF9300"/>
<path d="M11.302 9.05198C11.302 9.05198 11.3747 8.97931 11.5833 9.12465C11.7187 9.21931 11.8387 9.29131 11.8387 9.29131C11.8387 9.29131 11.924 9.20131 12.0493 9.22198C12.1747 9.24265 12.1047 9.41665 12.1253 9.78065C12.146 10.1453 12.292 10.3013 12.292 10.3013L12.1147 10.1973L12.1253 10.312L11.9273 10.218L11.8333 10.3533L11.7393 10.2073L11.5873 10.3L11.5413 10.176L11.364 10.27C11.364 10.27 11.6247 9.94731 11.6453 9.59265C11.6513 9.48665 11.6247 9.24865 11.6247 9.24865C11.6247 9.24865 11.4587 9.04131 11.302 9.05198Z" fill="#EEEEEE"/>
<path d="M10.3647 14.4373C10.2453 14.5087 10.292 14.552 10.3647 14.5833C10.4373 14.6147 10.8747 14.6673 11.7607 14.6873C12.6667 14.708 13.2293 14.604 13.302 14.562C13.3747 14.5207 13.3853 14.4473 13.2607 14.4267C13.1353 14.406 12.5107 14.51 11.75 14.51C10.8127 14.5107 10.4167 14.406 10.3647 14.4373Z" fill="#BF9300"/>
</svg>
