<svg width="24" height="24" viewBox="0 0 24 24" fill="none" xmlns="http://www.w3.org/2000/svg">
<path d="M21.3333 3.33331H2.66667C1.95942 3.33331 1.28115 3.61426 0.781049 4.11436C0.280952 4.61446 0 5.29274 0 5.99998L0 18C0 18.7072 0.280952 19.3855 0.781049 19.8856C1.28115 20.3857 1.95942 20.6666 2.66667 20.6666H21.3333C22.0406 20.6666 22.7189 20.3857 23.219 19.8856C23.719 19.3855 24 18.7072 24 18V5.99998C24 5.29274 23.719 4.61446 23.219 4.11436C22.7189 3.61426 22.0406 3.33331 21.3333 3.33331Z" fill="#006C35"/>
<path d="M5.94601 9.36664C6.36734 9.40664 6.13468 8.65397 6.28734 8.5173C6.31601 8.44997 6.36935 8.4493 6.37335 8.53464V9.1733C6.36935 9.3813 6.50601 9.44197 6.61201 9.4853C6.72268 9.47664 6.79601 9.48064 6.83934 9.58797L6.89134 10.6933C6.89134 10.6933 7.14735 10.7666 7.15935 10.0713C7.17201 9.6633 7.07801 9.32197 7.13334 9.24264C7.13534 9.16464 7.23468 9.15997 7.30401 9.19797C7.41401 9.2753 7.46335 9.3713 7.63401 9.3333C7.89468 9.26197 8.05068 9.1353 8.05468 8.9353C8.03934 8.7453 8.01801 8.5553 7.93601 8.3653C7.94735 8.33064 7.88601 8.2413 7.89734 8.20664C7.94401 8.27997 8.01534 8.27397 8.03134 8.20664C7.98734 8.06064 7.91868 7.92064 7.80668 7.85997C7.71468 7.77864 7.58001 7.7953 7.53068 7.96463C7.50801 8.1593 7.60135 8.3913 7.74268 8.57997C7.77268 8.65397 7.81534 8.77664 7.79668 8.8873C7.72134 8.92997 7.64534 8.91264 7.58268 8.84597C7.58268 8.84597 7.37534 8.69064 7.37534 8.65597C7.43068 8.30397 7.38801 8.26397 7.35735 8.16664C7.33601 8.03197 7.27201 7.98864 7.22001 7.89664C7.16801 7.84197 7.09801 7.84197 7.06468 7.89664C6.97268 8.0553 7.01535 8.39664 7.08201 8.5493C7.12935 8.6893 7.20268 8.77797 7.16801 8.77797C7.13934 8.8573 7.08068 8.83864 7.03801 8.7473C6.97668 8.55797 6.96468 8.27597 6.96468 8.14863C6.94601 7.9913 6.92601 7.65464 6.82268 7.5693C6.75935 7.4833 6.66535 7.52464 6.63268 7.60397C6.62601 7.75997 6.62468 7.91664 6.64268 8.0613C6.71334 8.31397 6.73601 8.53664 6.77068 8.79597C6.78001 9.1433 6.57001 8.94664 6.57935 8.77464C6.62801 8.5513 6.61534 8.1993 6.57201 8.10997C6.53801 8.0213 6.49734 7.99864 6.41468 8.0133C6.34934 8.00797 6.18001 8.1933 6.13201 8.49997C6.13201 8.49997 6.09134 8.65797 6.07401 8.79864C6.05068 8.9573 5.94668 9.0693 5.87335 8.77664C5.81001 8.56397 5.77134 8.0393 5.66534 8.16197C5.63468 8.57197 5.59801 9.2933 5.94601 9.36664Z" fill="white"/>
<path d="M6.57998 9.66595C6.23331 9.67262 5.72598 10.1213 5.71198 10.37C6.07731 10.194 6.43664 10.0246 6.80864 9.84329C6.74864 9.75329 6.80531 9.67262 6.57998 9.66595Z" fill="white"/>
<path d="M8.49133 11.0106C8.65199 10.4753 8.46533 10.0806 8.55266 10.0826C8.73733 10.282 8.99599 10.1093 9.05266 10.04C9.07733 10.0053 9.13799 9.98265 9.18066 10.028C9.32533 10.132 9.57999 10.0826 9.63266 9.89998C9.66602 9.71652 9.68652 9.53096 9.69399 9.34465C9.57599 9.38131 9.48799 9.40598 9.47999 9.45465L9.45533 9.61331C9.44533 9.66465 9.34333 9.66665 9.33933 9.60131C9.29466 9.39798 9.10933 9.37131 8.99733 9.68665C8.92199 9.74798 8.78599 9.75998 8.77133 9.66865C8.78933 9.45731 8.70399 9.42865 8.53333 9.52798C8.47866 9.10865 8.42333 8.70798 8.36866 8.28865C8.43999 8.28665 8.50533 8.33931 8.56999 8.25798C8.49866 8.03598 8.34799 7.58265 8.26466 7.54998C8.22399 7.50065 8.18933 7.53131 8.13666 7.54398C8.04733 7.57265 7.96399 7.64998 7.98999 7.79998C8.09599 8.44331 8.16533 8.93331 8.27066 9.57665C8.28666 9.65198 8.22399 9.75131 8.14266 9.74131C8.00466 9.64798 7.96999 9.45865 7.73399 9.46665C7.56266 9.46865 7.36733 9.65398 7.34333 9.83331C7.31466 9.97531 7.30466 10.13 7.34333 10.2546C7.46333 10.3986 7.60799 10.3846 7.73399 10.352C7.83733 10.3093 7.92333 10.2053 7.95933 10.23C7.98399 10.26 7.96533 10.602 7.47133 10.8646C7.17199 10.9986 6.93399 11.0293 6.80599 10.7853C6.72666 10.6326 6.81199 10.0526 6.61666 10.1873C6.03866 11.6773 7.96999 11.884 8.18599 10.2486C8.20666 10.1813 8.28799 10.114 8.30199 10.224C8.25733 11.7053 6.80799 11.8073 6.56199 11.3413C6.50066 11.2313 6.48266 10.9873 6.47666 10.8406C6.43999 10.5493 6.28733 10.6613 6.26333 10.95C6.23866 11.1106 6.24533 11.156 6.24533 11.31C6.32199 12.48 8.18866 11.9773 8.49133 11.0106ZM7.77133 9.99865C7.75933 10.0213 7.70666 10.012 7.66799 10.012C7.62399 10.01 7.60333 10.0026 7.57666 9.96731C7.56466 9.92731 7.60199 9.88931 7.61866 9.85931C7.63933 9.82398 7.75066 9.78731 7.78999 9.88598C7.79713 9.90473 7.79917 9.92504 7.79589 9.94484C7.79261 9.96463 7.78413 9.9832 7.77133 9.99865Z" fill="white"/>
<path d="M9.06799 8.67267C9.18399 8.63 9.73399 8.00133 9.73399 8.00133C9.70532 7.97667 9.67999 7.95867 9.65133 7.934C9.62066 7.90734 9.62399 7.88067 9.65133 7.85467C9.78733 7.77533 9.74399 7.60134 9.67266 7.522C9.62645 7.49962 9.57569 7.48821 9.52435 7.48868C9.473 7.48914 9.42246 7.50146 9.37666 7.52467C9.28132 7.616 9.25866 7.76267 9.33399 7.85467C9.40733 7.88933 9.48066 7.96333 9.43199 8.004C9.20732 8.244 8.59133 8.658 8.66266 8.67267C8.67799 8.69267 9.05599 8.692 9.06799 8.67267ZM9.47533 7.68533C9.51066 7.67667 9.55599 7.708 9.57732 7.75467C9.59866 7.80134 9.58733 7.846 9.55266 7.85467H9.55132C9.51666 7.86333 9.47132 7.832 9.44999 7.78534C9.42932 7.738 9.44066 7.694 9.47533 7.68533ZM5.90799 11.5053C5.81732 11.69 5.77932 11.5633 5.77132 11.46C5.76116 11.2865 5.76988 11.1123 5.79732 10.9407C5.81999 10.794 5.79732 10.8387 5.75066 10.898C5.54466 11.226 5.52666 11.7167 5.64066 11.8627C5.70066 11.932 5.79999 11.9627 5.87399 11.94C6.00332 11.884 6.05999 11.6213 6.02932 11.526C5.98532 11.4587 5.95132 11.448 5.90799 11.5053ZM12.6953 8.03334C12.9327 8.352 13.158 8.67667 13.3787 9.00733C13.4222 9.29311 13.4533 9.57467 13.472 9.852C13.5087 10.388 13.5193 10.968 13.486 11.5327C13.586 11.5367 13.748 11.37 13.804 11.1267C13.8407 10.79 13.7907 10.1907 13.7873 9.992C13.7829 9.86749 13.7769 9.74303 13.7693 9.61867C14.032 10.048 14.288 10.4973 14.538 10.9967C14.6293 10.954 14.6093 10.4433 14.556 10.3713C14.356 9.94267 14.0807 9.51867 13.9927 9.356C13.96 9.296 13.8487 9.12534 13.716 8.93C13.7042 8.77415 13.6855 8.61888 13.66 8.46467C13.6187 8.17933 13.778 8.496 13.756 8.33C13.7047 8.04467 13.546 7.852 13.3607 7.59067C13.3007 7.506 13.3027 7.48867 13.21 7.61133C13.1779 7.68502 13.1628 7.76502 13.166 7.84533C13.1367 7.80305 13.1058 7.76191 13.0733 7.722L12.77 7.46333C12.7027 7.41533 12.5387 7.32867 12.5093 7.47267C12.4964 7.57364 12.5014 7.67609 12.524 7.77534C12.5413 7.84667 12.6447 7.96534 12.6953 8.03334ZM13.1887 8.01734C13.2013 8.07267 13.2147 8.128 13.2233 8.18467L13.2333 8.23867C13.2053 8.19967 13.1761 8.16143 13.146 8.124C13.0367 7.99467 13.1273 8.02267 13.1887 8.01734Z" fill="white"/>
<path d="M14.6126 11.1287C14.3806 11.3707 14.046 11.6687 13.682 11.8067C13.6426 11.8507 13.7793 12.0393 13.9553 12.0393C14.2506 12.0047 14.5106 11.8387 14.7513 11.402C14.816 11.3007 14.9293 11.0827 14.932 10.9133C14.954 9.92267 14.8826 9.15133 14.734 8.43533C14.724 8.37788 14.7267 8.31895 14.742 8.26267C14.7606 8.24 14.826 8.26267 14.8606 8.20667C14.9106 8.15467 14.7266 7.728 14.6213 7.564C14.584 7.49067 14.5713 7.44133 14.5093 7.57267C14.444 7.67933 14.4006 7.86533 14.406 8.03867C14.5466 9.014 14.59 9.868 14.682 10.8433C14.6893 10.9373 14.6753 11.0747 14.6126 11.1287ZM18.4993 8.65533C18.4893 8.586 18.4586 8.42467 18.4706 8.404C18.4893 8.35467 18.586 8.40933 18.6206 8.35267C18.6713 8.30133 18.3713 7.916 18.2666 7.752C18.2286 7.67867 18.216 7.62933 18.154 7.76067C18.0886 7.86733 18.066 8.05867 18.092 8.22667C18.2486 9.286 18.3653 10.082 18.3893 11.0213C18.3753 11.1107 18.3726 11.1587 18.3306 11.2707C18.238 11.3893 18.136 11.5373 18.0393 11.6093C17.9433 11.6807 17.7386 11.7493 17.6713 11.802C17.46 11.9253 17.4593 12.066 17.6313 12.0707C17.926 12.036 18.2753 12.012 18.516 11.648C18.5806 11.5467 18.6573 11.2713 18.6606 11.102C18.6826 10.1113 18.648 9.37133 18.4993 8.65533ZM16.2653 9.48C16.268 9.344 16.2806 9.164 16.288 9.05133C16.2913 9.00933 16.3013 8.962 16.3413 8.95133C16.382 8.94067 16.454 8.99267 16.4546 8.94867C16.4466 8.86267 16.4293 8.73467 16.3806 8.674C16.314 8.57533 16.1373 8.59933 16.106 8.754C16.1066 8.81133 16.1326 8.842 16.128 8.894C16.12 8.92333 16.0893 8.94333 16.0166 8.90867C16.0286 8.898 15.9693 8.816 15.9693 8.816C15.9126 8.78133 15.8366 8.818 15.788 8.84933C15.7705 8.88301 15.7601 8.91987 15.7574 8.95769C15.7546 8.99551 15.7596 9.03349 15.772 9.06933C15.852 9.22067 16.1313 9.47733 16.2653 9.48Z" fill="white"/>
<path d="M16.1713 8.32065L16.7666 9.04932C16.81 9.59999 16.8213 10.0507 16.864 10.6013C16.858 10.8347 16.786 11.038 16.7173 11.0673C16.7173 11.0673 16.614 11.1273 16.5446 11.0613C16.494 11.0407 16.292 10.7247 16.292 10.7247C16.1886 10.63 16.1206 10.6567 16.0473 10.7247C15.8446 10.92 15.7533 11.2867 15.616 11.5387C15.58 11.5953 15.48 11.6433 15.3686 11.5347C15.0866 11.1487 15.252 10.6 15.2173 10.7413C14.966 11.0247 15.0766 11.4933 15.1333 11.5947C15.216 11.76 15.2833 11.8667 15.4446 11.9487C15.5913 12.0567 15.706 11.9887 15.7686 11.9133C15.9166 11.7593 15.9186 11.3693 15.988 11.2907C16.036 11.1487 16.1593 11.1727 16.2186 11.236C16.2734 11.3122 16.3454 11.3746 16.4286 11.418C16.5666 11.54 16.7313 11.562 16.8933 11.4507C17.004 11.3887 17.0766 11.308 17.1413 11.1487C17.2133 10.9567 17.174 10.074 17.1593 9.54465C17.2626 9.67799 17.3633 9.81732 17.4653 9.95665C17.51 10.3987 17.5353 10.8387 17.5206 11.288C17.51 11.378 17.834 11.0213 17.8313 10.852V10.4747C17.9873 10.7093 18.1393 10.9513 18.282 11.2073C18.3713 11.1607 18.342 10.6573 18.2853 10.588C18.1206 10.312 17.9013 10.0247 17.75 9.81932C17.74 9.79332 17.7346 9.76399 17.7226 9.73932C17.662 9.59865 17.7 9.48532 17.6713 9.33598C17.6433 9.18598 17.6506 8.96198 17.6073 8.78398C17.5953 8.71465 17.5593 8.49198 17.57 8.47132C17.5873 8.42132 17.654 8.47265 17.6866 8.41532C17.7353 8.36199 17.518 7.79865 17.4073 7.63732C17.3673 7.56532 17.2953 7.58998 17.206 7.70732C17.124 7.78465 17.1546 7.96065 17.186 8.12799C17.264 8.53332 17.3293 8.92198 17.3853 9.30665C17.2654 9.14727 17.1443 8.98882 17.022 8.83132L17.0166 8.80198C17.0166 8.79465 16.9986 8.45265 16.9826 8.37132C16.98 8.33865 16.972 8.32865 17.0066 8.33265C17.0433 8.36332 17.048 8.36532 17.0713 8.37599C17.1086 8.38265 17.1413 8.31932 17.1193 8.26132L16.7746 7.62665C16.7473 7.59932 16.7113 7.56999 16.668 7.63399C16.6409 7.65737 16.6193 7.68635 16.6046 7.71893C16.5898 7.75151 16.5823 7.7869 16.5826 7.82265C16.5933 7.97265 16.6193 8.12598 16.6293 8.27665L16.644 8.35798C16.6286 8.33998 16.61 8.31732 16.602 8.30932C16.3093 8.00132 16.7366 8.25932 16.546 8.02132C16.3846 7.84398 16.338 7.78865 16.1993 7.68198C16.13 7.63732 16.088 7.55198 16.0653 7.69732C16.0546 7.8248 16.0513 7.95279 16.0553 8.08065C16.0553 8.14199 16.1173 8.25398 16.1713 8.32065ZM10.2373 9.03999C10.4053 9.10932 10.5126 8.78932 10.582 8.43865C10.6286 8.33998 10.6646 8.32932 10.6886 8.37998C10.6826 8.84665 10.722 8.94998 10.842 9.09198C11.1093 9.29865 11.3306 9.11798 11.3486 9.10065L11.5566 8.89265C11.6026 8.84398 11.6646 8.84065 11.73 8.88399C11.794 8.94132 11.7853 9.04132 11.9213 9.11065C12.036 9.15665 12.2813 9.12132 12.338 9.02265C12.4146 8.89199 12.4333 8.84665 12.468 8.79732C12.5226 8.72465 12.616 8.75732 12.616 8.77998C12.6073 8.82065 12.5526 8.86132 12.59 8.93398C12.6553 8.98265 12.67 8.95132 12.7086 8.94065C12.8446 8.87532 12.946 8.58065 12.946 8.58065C12.952 8.47065 12.8906 8.47998 12.8506 8.50265C12.7986 8.53398 12.7953 8.54465 12.7433 8.57665C12.6766 8.58665 12.548 8.63065 12.4846 8.53199C12.4193 8.41332 12.418 8.24798 12.3686 8.12865C12.3686 8.11998 12.282 7.93998 12.3626 7.92865C12.4033 7.93598 12.4893 7.95865 12.5033 7.88665C12.5453 7.81598 12.412 7.61465 12.3213 7.51265C12.242 7.42598 12.132 7.41532 12.026 7.50398C11.9513 7.57265 11.962 7.64865 11.9473 7.72132C11.9348 7.77257 11.9346 7.82607 11.9467 7.87741C11.9589 7.92876 11.9831 7.97648 12.0173 8.01665C12.0913 8.16265 12.2266 8.35132 12.182 8.61532C12.182 8.61532 12.1033 8.74065 11.9653 8.72465C11.908 8.71198 11.8146 8.68732 11.7653 8.32065C11.728 8.04265 11.7746 7.65399 11.6566 7.47199C11.614 7.36198 11.5833 7.25599 11.4793 7.44399C11.4513 7.51799 11.3313 7.62998 11.4186 7.86132C11.49 8.00732 11.5186 8.24532 11.4866 8.51065C11.4373 8.58598 11.4266 8.61132 11.362 8.68665C11.2713 8.78398 11.1733 8.75932 11.098 8.72265C11.0273 8.67532 10.9726 8.65065 10.9406 8.49998C10.9466 8.25998 10.96 7.86665 10.916 7.78332C10.8513 7.65398 10.7446 7.70065 10.6986 7.73998C10.4793 7.94065 10.3713 8.27865 10.3053 8.54732C10.2446 8.74332 10.18 8.68732 10.1346 8.60798C10.024 8.50398 10.0166 7.69265 9.88264 7.82665C9.66731 8.43598 10.004 9.10532 10.2373 9.03999Z" fill="white"/>
<path d="M13.4247 10.3493L13.3607 10.3126L12.1067 10.3066C12.042 10.282 12.0613 10.2606 12.1067 10.2433C12.406 10.2026 12.9387 10.116 12.974 9.60462C12.968 9.33862 12.8593 9.16396 12.5327 9.11596C12.2933 9.13462 12.122 9.36729 12.1493 9.62262C12.138 9.69196 12.172 9.82662 12.102 9.84196C11.6413 9.88396 11.1393 10.172 11.1227 10.3786C11.0947 10.398 11.032 10.342 11.04 10.254C11.0177 9.87755 10.9093 9.51128 10.7233 9.18329C10.578 9.03796 10.6233 9.08596 10.526 9.15462C10.4633 9.22662 10.452 9.27596 10.4553 9.41929C10.4553 9.42462 10.5727 9.75196 10.672 9.98129C10.738 10.2166 10.8 10.4853 10.7553 10.7393C10.6007 11.0753 10.2893 11.3766 9.98932 11.54C9.83466 11.59 9.70199 11.572 9.66932 11.5373C9.57399 11.4733 9.57866 11.3553 9.58599 11.3533C9.83866 11.1766 10.128 11.0346 10.3547 10.5593C10.4213 10.378 10.4413 10.268 10.3753 9.98729C10.3575 9.88822 10.3119 9.79623 10.244 9.72196C10.2847 9.69529 10.4013 9.78396 10.4193 9.73129C10.3856 9.57762 10.3091 9.43663 10.1987 9.32462C10.1087 9.24262 10.0107 9.23329 9.92799 9.30862C9.83466 9.36062 9.81466 9.54596 9.85932 9.70862C9.90866 9.83129 10.0427 9.85196 10.1387 10.098C10.1387 10.1033 10.1733 10.282 10.124 10.352C10.0847 10.4746 9.57466 10.8753 9.54666 10.8933C9.53266 10.9106 9.53866 10.8846 9.53666 10.818C9.53332 10.7366 9.56932 10.5446 9.55932 10.5433C9.39332 10.6506 9.33799 10.9793 9.30799 11.0766C8.88799 11.3666 8.41266 11.5826 8.13799 11.8773C7.99466 12.1006 9.12332 11.6206 9.25466 11.5626C9.28399 11.584 9.28066 11.6846 9.35932 11.7746C9.47666 11.9333 9.72466 12.0313 9.96799 11.9706C10.3747 11.8233 10.61 11.546 10.8487 11.2386C10.8827 11.1886 10.936 11.1506 10.9853 11.1886C11.1493 11.556 11.6233 11.816 12.2347 11.8433C12.3767 11.6706 12.308 11.5873 12.2507 11.5513C12.2507 11.546 11.9487 11.4313 11.9027 11.3166C11.8747 11.2126 11.9427 11.1213 12.0787 11.052C12.4713 11.0046 12.8573 10.952 13.2313 10.832C13.2353 10.7066 13.308 10.5186 13.358 10.4373C13.406 10.3546 13.432 10.3793 13.4247 10.3493ZM12.3933 9.56796C12.412 9.53662 12.474 9.53796 12.532 9.57196C12.59 9.60596 12.6227 9.65862 12.6033 9.68996C12.5847 9.72196 12.522 9.71996 12.464 9.68596C12.406 9.65196 12.3747 9.59996 12.3933 9.56796ZM11.8887 10.8346C11.754 10.8806 11.6247 10.9166 11.6247 11.1113C11.6747 11.382 11.556 11.2893 11.486 11.252C11.4033 11.1926 11.1707 11.0493 11.1373 10.74C11.132 10.666 11.19 10.604 11.2827 10.604C11.422 10.642 11.628 10.6446 11.8067 10.6633C11.9527 10.6726 12.0253 10.7873 11.8887 10.8346ZM7.24399 7.83129C7.38799 7.90062 7.65999 7.87129 7.64799 7.63796C7.64799 7.61729 7.64266 7.54796 7.64066 7.52929C7.61132 7.46062 7.53132 7.47729 7.51266 7.54862C7.50666 7.57196 7.52266 7.60929 7.50199 7.62129C7.48999 7.63329 7.44399 7.62596 7.44599 7.56196C7.44599 7.54129 7.43066 7.51929 7.42199 7.50662C7.41266 7.50062 7.40732 7.49862 7.39066 7.49862C7.37066 7.49929 7.37066 7.50462 7.35999 7.52196C7.35532 7.53862 7.34866 7.55596 7.34866 7.57529C7.34599 7.59796 7.33732 7.60596 7.32066 7.60996C7.30199 7.60996 7.30599 7.61196 7.29132 7.60196C7.28199 7.59196 7.27066 7.58796 7.27066 7.57129C7.27035 7.55183 7.26721 7.53251 7.26132 7.51396C7.25288 7.50418 7.2411 7.49773 7.22599 7.49462C7.14732 7.49462 7.14199 7.58462 7.14666 7.61929C7.13932 7.62529 7.13666 7.78662 7.24399 7.83129Z" fill="white"/>
<path d="M11.6746 9.35132C11.6746 9.33065 11.6593 9.30932 11.6506 9.29598C11.6413 9.28998 11.636 9.28798 11.6193 9.28798C11.5993 9.28865 11.6 9.29398 11.5886 9.31132C11.584 9.32865 11.5773 9.34532 11.5773 9.36465C11.5753 9.38798 11.566 9.39598 11.5493 9.39932C11.5306 9.39932 11.5346 9.40132 11.5193 9.39198C11.51 9.38198 11.4986 9.37798 11.4986 9.36132C11.4983 9.34185 11.4952 9.32254 11.4893 9.30398C11.4809 9.29421 11.4691 9.28798 11.454 9.28532C11.3753 9.28532 11.37 9.37532 11.374 9.40932C11.368 9.41598 11.3646 9.57665 11.472 9.62198C11.6166 9.69065 11.96 9.65065 11.876 9.42865C11.8745 9.39214 11.8721 9.35569 11.8686 9.31932C11.8393 9.25065 11.7586 9.26798 11.7406 9.33865C11.7353 9.36198 11.7513 9.39932 11.73 9.41132C11.7193 9.42332 11.6726 9.41598 11.6746 9.35132ZM13.9393 8.87998C14.0833 8.94932 14.3546 8.91998 14.3426 8.68732C14.3412 8.65081 14.3387 8.61435 14.3353 8.57798C14.306 8.50932 14.226 8.52665 14.208 8.59732C14.202 8.62065 14.218 8.65798 14.1966 8.66998C14.1846 8.68198 14.1386 8.67532 14.1406 8.61065C14.1406 8.58998 14.1253 8.56798 14.1166 8.55532C14.1073 8.54932 14.102 8.54732 14.0846 8.54732C14.0646 8.54865 14.0653 8.55332 14.054 8.57065C14.0493 8.58798 14.0426 8.60465 14.0426 8.62398C14.04 8.64732 14.0313 8.65532 14.0146 8.65865C13.996 8.65865 14 8.66065 13.9846 8.65132C13.9753 8.64132 13.9646 8.63732 13.9646 8.62065C13.9644 8.60096 13.9612 8.58142 13.9553 8.56265C13.9464 8.55287 13.9344 8.54665 13.9193 8.54398C13.8406 8.54398 13.8353 8.63398 13.84 8.66798C13.8353 8.67465 13.832 8.83532 13.9393 8.87998ZM14.0366 7.97865C14.088 8.12265 13.9973 8.25998 14.0513 8.27998C14.1 8.30265 14.1693 8.13132 14.1946 7.97332C14.2246 7.84532 14.1333 7.58332 14.004 7.52932C13.9253 7.51065 13.8133 7.55732 13.8493 7.66265C13.8313 7.71332 14.008 7.88532 14.0366 7.97865ZM15.3666 11.3546C15.4673 11.3553 15.5833 11.1246 15.6326 10.896C15.66 10.5813 15.614 10.39 15.606 10.2046C15.598 10.0193 15.3973 8.60998 15.356 8.46998C15.3073 8.20532 15.5513 8.43465 15.5246 8.28065C15.44 8.08665 15.23 7.80465 15.1633 7.63598C15.1233 7.56398 15.1406 7.49998 15.0513 7.61732C14.9693 7.88732 14.9406 8.10732 14.972 8.27532C15.184 9.38198 15.4013 10.302 15.3666 11.3546ZM17.8706 8.46132C17.894 8.53332 17.8353 8.76598 17.884 8.78732C17.9286 8.81132 17.9913 8.62665 18.0146 8.45532C18.0273 8.36132 17.9586 8.03332 17.8406 7.97465C17.7686 7.95465 17.6666 8.00465 17.7 8.11932C17.6833 8.17465 17.8446 8.35998 17.8706 8.46132ZM9.12463 10.8986C9.16797 10.9166 9.2273 10.7806 9.24997 10.6546C9.26263 10.5853 9.19597 10.3446 9.0833 10.3013C9.01397 10.2866 8.9193 10.3053 8.94863 10.408C8.9453 10.4633 9.10197 10.53 9.1113 10.6586C9.13397 10.712 9.07797 10.8833 9.12463 10.8986ZM6.0873 7.82198C6.1093 7.87732 6.0653 8.05398 6.1113 8.07065C6.1533 8.08932 6.21263 7.94798 6.23463 7.81798C6.2473 7.74598 6.2373 7.50198 6.07063 7.45198C6.00197 7.43665 5.90663 7.47465 5.93797 7.56198C5.92197 7.60332 6.06263 7.74465 6.0873 7.82198ZM9.3553 8.60398C9.22797 8.67332 9.17797 8.87865 9.25797 8.99798C9.33197 9.10398 9.4493 9.06465 9.4653 9.06465C9.59063 9.07998 9.66463 8.82998 9.66463 8.82998C9.66463 8.82998 9.66863 8.75998 9.51997 8.89265C9.4573 8.90465 9.4493 8.88132 9.43397 8.84532C9.41899 8.78006 9.42578 8.71169 9.4533 8.65065C9.47463 8.58865 9.42663 8.56132 9.3553 8.60398ZM10.3166 7.83532C10.3371 7.82252 10.3547 7.8056 10.3682 7.78562C10.3818 7.76565 10.391 7.74306 10.3953 7.71932C10.4146 7.62198 10.292 7.76532 10.2766 7.65665C10.2493 7.55598 10.328 7.51465 10.4026 7.41732C10.4053 7.34998 10.404 7.30265 10.3126 7.35732C10.2486 7.40065 10.1206 7.53265 10.1166 7.68465C10.1126 7.77065 10.0966 7.76998 10.1533 7.82465C10.194 7.88398 10.2346 7.87798 10.3166 7.83532ZM11.1826 7.88732C11.2653 7.66332 11.2653 7.56865 11.2713 7.47332C11.246 7.32865 11.148 7.33332 11.0833 7.49398C11.0553 7.55465 11.0226 7.87398 11.028 7.87398C11.006 7.96932 11.1273 8.00998 11.1826 7.88732ZM16.6293 9.47598C16.6293 9.47598 15.9606 9.95132 15.9446 9.96798C15.878 10.0266 15.9113 10.2346 15.9446 10.2106C15.992 10.2293 16.6646 9.77265 16.6513 9.71932C16.6826 9.72065 16.698 9.45198 16.6293 9.47598ZM16.5473 10.7653C16.592 10.7893 16.71 10.6433 16.7053 10.4613C16.7186 10.3673 16.6713 10.0226 16.554 9.96398C16.482 9.94398 16.386 10.0053 16.4193 10.1193C16.4026 10.174 16.502 10.3653 16.528 10.4666C16.5513 10.5393 16.4986 10.744 16.5473 10.7653ZM12.7606 11.7626C12.7606 11.7686 12.8173 11.8173 12.884 11.7786C13.024 11.7246 13.112 11.6726 13.308 11.6293C13.3593 11.6286 13.356 11.4906 13.2746 11.486C13.1686 11.4913 13.07 11.4966 12.964 11.5806C12.8986 11.5953 12.888 11.556 12.8733 11.52C12.8573 11.4313 12.91 11.37 12.8986 11.304C12.9026 11.308 12.838 11.2486 12.772 11.282C12.7686 11.282 12.6246 11.3793 12.5786 11.4473C12.55 11.4693 12.5533 11.488 12.562 11.5246C12.584 11.5753 12.6233 11.56 12.6673 11.536C12.726 11.528 12.754 11.5666 12.7493 11.6366C12.7213 11.7253 12.7606 11.758 12.7606 11.7626ZM17.128 11.8733C17.106 11.9113 17.0913 11.9686 17.1593 11.9866C17.2846 12.022 17.5733 11.834 17.5733 11.8306C17.62 11.7953 17.6046 11.7293 17.6006 11.7293C17.5733 11.698 17.512 11.716 17.4706 11.7113C17.4513 11.7113 17.386 11.7013 17.4173 11.644C17.4393 11.6131 17.4568 11.5792 17.4693 11.5433C17.4886 11.5 17.472 11.4713 17.4013 11.448C17.33 11.4346 17.3013 11.4413 17.222 11.448C17.1793 11.4573 17.1646 11.476 17.1566 11.528C17.16 11.6066 17.2073 11.6026 17.2566 11.634C17.2853 11.6706 17.304 11.704 17.2546 11.7633C17.208 11.8066 17.1753 11.8306 17.128 11.8733ZM17 15.3333H16V15C16 14.9116 15.9648 14.8268 15.9023 14.7643C15.8398 14.7018 15.755 14.6666 15.6666 14.6666C15.5782 14.6666 15.4934 14.7018 15.4309 14.7643C15.3684 14.8268 15.3333 14.9116 15.3333 15V15.3333H7.3333C7.3333 15.3333 7.3333 16 9.3333 16H15.3333V16.3333C15.3333 16.4217 15.3684 16.5065 15.4309 16.569C15.4934 16.6315 15.5782 16.6666 15.6666 16.6666C15.755 16.6666 15.8398 16.6315 15.9023 16.569C15.9648 16.5065 16 16.4217 16 16.3333V16H16.6666V16.3333C16.6666 16.4217 16.7018 16.5065 16.7643 16.569C16.8268 16.6315 16.9116 16.6666 17 16.6666C17.0884 16.6666 17.1732 16.6315 17.2357 16.569C17.2982 16.5065 17.3333 16.4217 17.3333 16.3333V15.6666C17.3333 15.5782 17.2982 15.4935 17.2357 15.4309C17.1732 15.3684 17.0884 15.3333 17 15.3333Z" fill="white"/>
</svg>
