<svg width="44" height="44" viewBox="0 0 44 44" fill="none" xmlns="http://www.w3.org/2000/svg">
<path d="M2.75 13.75V30.9375C2.75 32.5785 3.4019 34.1523 4.56228 35.3127C5.72266 36.4731 7.29647 37.125 8.9375 37.125H35.0625C36.7035 37.125 38.2773 36.4731 39.4377 35.3127C40.5981 34.1523 41.25 32.5785 41.25 30.9375V13.75L22.6518 23.7765C22.4514 23.8843 22.2275 23.9408 22 23.9408C21.7725 23.9408 21.5486 23.8843 21.3483 23.7765L2.75 13.75Z" fill="#367AF2"/>
<path d="M2.75 13.75V30.9375C2.75 32.5785 3.4019 34.1523 4.56228 35.3127C5.72266 36.4731 7.29647 37.125 8.9375 37.125H35.0625C36.7035 37.125 38.2773 36.4731 39.4377 35.3127C40.5981 34.1523 41.25 32.5785 41.25 30.9375V13.75L22.6518 23.7765C22.4514 23.8843 22.2275 23.9408 22 23.9408C21.7725 23.9408 21.5486 23.8843 21.3483 23.7765L2.75 13.75Z" fill="url(#paint0_linear_69_1915)"/>
<path d="M2.75 13.75V30.9375C2.75 32.5785 3.4019 34.1523 4.56228 35.3127C5.72266 36.4731 7.29647 37.125 8.9375 37.125H35.0625C36.7035 37.125 38.2773 36.4731 39.4377 35.3127C40.5981 34.1523 41.25 32.5785 41.25 30.9375V13.75L22.6518 23.7765C22.4514 23.8843 22.2275 23.9408 22 23.9408C21.7725 23.9408 21.5486 23.8843 21.3483 23.7765L2.75 13.75Z" fill="url(#paint1_linear_69_1915)"/>
<path d="M2.75 13.75V30.9375C2.75 32.5785 3.4019 34.1523 4.56228 35.3127C5.72266 36.4731 7.29647 37.125 8.9375 37.125H35.0625C36.7035 37.125 38.2773 36.4731 39.4377 35.3127C40.5981 34.1523 41.25 32.5785 41.25 30.9375V13.75L22.6518 23.7765C22.4514 23.8843 22.2275 23.9408 22 23.9408C21.7725 23.9408 21.5486 23.8843 21.3483 23.7765L2.75 13.75Z" fill="url(#paint2_linear_69_1915)" fill-opacity="0.75"/>
<path d="M2.75 13.75V30.9375C2.75 32.5785 3.4019 34.1523 4.56228 35.3127C5.72266 36.4731 7.29647 37.125 8.9375 37.125H35.0625C36.7035 37.125 38.2773 36.4731 39.4377 35.3127C40.5981 34.1523 41.25 32.5785 41.25 30.9375V13.75L22.6518 23.7765C22.4514 23.8843 22.2275 23.9408 22 23.9408C21.7725 23.9408 21.5486 23.8843 21.3483 23.7765L2.75 13.75Z" fill="url(#paint3_linear_69_1915)" fill-opacity="0.7"/>
<path d="M8.9375 6.875C7.29647 6.875 5.72266 7.5269 4.56228 8.68728C3.4019 9.84766 2.75 11.4215 2.75 13.0625V14.5613L21.3483 24.5878C21.5486 24.6956 21.7725 24.752 22 24.752C22.2275 24.752 22.4514 24.6956 22.6518 24.5878L41.25 14.5613V13.0625C41.25 11.4215 40.5981 9.84766 39.4377 8.68728C38.2773 7.5269 36.7035 6.875 35.0625 6.875H8.9375Z" fill="url(#paint4_linear_69_1915)"/>
<path d="M21.9489 27.3011C21.0795 27.3011 20.3111 27.1818 19.6435 26.9432C18.9759 26.7074 18.4148 26.3594 17.9602 25.8991C17.5057 25.4389 17.1619 24.875 16.929 24.2074C16.696 23.5398 16.5795 22.7756 16.5795 21.9148C16.5795 21.0824 16.6974 20.3381 16.9332 19.6818C17.1719 19.0256 17.517 18.4688 17.9688 18.0114C18.4233 17.5511 18.9744 17.2003 19.6222 16.9588C20.2727 16.7173 21.0085 16.5966 21.8295 16.5966C22.6278 16.5966 23.3267 16.7273 23.9261 16.9886C24.5284 17.2472 25.0313 17.598 25.4347 18.0412C25.8409 18.4815 26.1449 18.9773 26.3466 19.5284C26.5511 20.0795 26.6534 20.6477 26.6534 21.233C26.6534 21.6449 26.6335 22.0625 26.5938 22.4858C26.554 22.9091 26.4702 23.2983 26.3423 23.6534C26.2145 24.0057 26.017 24.2898 25.75 24.5057C25.4858 24.7216 25.1278 24.8295 24.6761 24.8295C24.4773 24.8295 24.2585 24.7983 24.0199 24.7358C23.7812 24.6733 23.5696 24.5696 23.3849 24.4247C23.2003 24.2798 23.0909 24.0852 23.0568 23.8409H23.0057C22.9375 24.0057 22.8324 24.1619 22.6903 24.3097C22.5511 24.4574 22.3679 24.5753 22.1406 24.6634C21.9162 24.7514 21.642 24.7898 21.3182 24.7784C20.9489 24.7642 20.6236 24.6818 20.3423 24.5312C20.0611 24.3778 19.8253 24.1705 19.6349 23.9091C19.4474 23.6449 19.3054 23.3395 19.2088 22.9929C19.1151 22.6435 19.0682 22.267 19.0682 21.8636C19.0682 21.4801 19.125 21.1293 19.2386 20.8111C19.3523 20.4929 19.5099 20.2145 19.7116 19.9759C19.9162 19.7372 20.1548 19.5469 20.4276 19.4048C20.7031 19.2599 21 19.1705 21.3182 19.1364C21.6023 19.108 21.8608 19.1207 22.0938 19.1747C22.3267 19.2259 22.5185 19.304 22.669 19.4091C22.8196 19.5114 22.9148 19.625 22.9545 19.75H23.0057V19.2727H23.9091V23.125C23.9091 23.3636 23.9759 23.5739 24.1094 23.7557C24.2429 23.9375 24.4375 24.0284 24.6932 24.0284C24.983 24.0284 25.2045 23.929 25.358 23.7301C25.5142 23.5312 25.6207 23.2244 25.6776 22.8097C25.7372 22.3949 25.767 21.8636 25.767 21.2159C25.767 20.8352 25.7145 20.4602 25.6094 20.0909C25.5071 19.7187 25.3509 19.3707 25.1406 19.0469C24.9332 18.723 24.6705 18.4375 24.3523 18.1903C24.0341 17.9432 23.6605 17.75 23.2315 17.6108C22.8054 17.4687 22.321 17.3977 21.7784 17.3977C21.1108 17.3977 20.5128 17.5014 19.9844 17.7088C19.4588 17.9134 19.0114 18.2131 18.642 18.608C18.2756 19 17.9957 19.4773 17.8026 20.0398C17.6122 20.5994 17.517 21.2358 17.517 21.9489C17.517 22.6733 17.6122 23.3168 17.8026 23.8793C17.9957 24.4418 18.2798 24.9162 18.6548 25.3026C19.0327 25.6889 19.5 25.9815 20.0568 26.1804C20.6136 26.3821 21.2557 26.483 21.983 26.483C22.2955 26.483 22.6037 26.4531 22.9077 26.3935C23.2116 26.3338 23.4801 26.2685 23.7131 26.1974C23.946 26.1264 24.1136 26.0739 24.2159 26.0398L24.4545 26.8239C24.2784 26.8977 24.0483 26.9716 23.7642 27.0455C23.483 27.1193 23.1818 27.1804 22.8608 27.2287C22.5426 27.277 22.2386 27.3011 21.9489 27.3011ZM21.4545 23.9091C21.8352 23.9091 22.1435 23.8324 22.3793 23.679C22.6151 23.5256 22.7869 23.294 22.8949 22.9844C23.0028 22.6747 23.0568 22.2841 23.0568 21.8125C23.0568 21.3352 22.9972 20.9631 22.8778 20.696C22.7585 20.429 22.5824 20.2415 22.3494 20.1335C22.1165 20.0256 21.8295 19.9716 21.4886 19.9716C21.1648 19.9716 20.8878 20.0568 20.6577 20.2273C20.4304 20.3949 20.2557 20.6193 20.1335 20.9006C20.0142 21.179 19.9545 21.483 19.9545 21.8125C19.9545 22.1761 20.0028 22.5185 20.0994 22.8395C20.196 23.1577 20.3537 23.4162 20.5724 23.6151C20.7912 23.8111 21.0852 23.9091 21.4545 23.9091Z" fill="white"/>
<defs>
<linearGradient id="paint0_linear_69_1915" x1="26.8881" y1="18.3315" x2="36.9352" y2="38.3254" gradientUnits="userSpaceOnUse">
<stop offset="0.199" stop-color="#0094F0" stop-opacity="0"/>
<stop offset="0.431" stop-color="#0094F0"/>
</linearGradient>
<linearGradient id="paint1_linear_69_1915" x1="16.5" y1="16.2112" x2="6.75675" y2="38.951" gradientUnits="userSpaceOnUse">
<stop offset="0.191" stop-color="#0094F0" stop-opacity="0"/>
<stop offset="0.431" stop-color="#0094F0"/>
</linearGradient>
<linearGradient id="paint2_linear_69_1915" x1="32.1516" y1="27.6953" x2="33.7315" y2="39.2906" gradientUnits="userSpaceOnUse">
<stop stop-color="#2764E7" stop-opacity="0"/>
<stop offset="1" stop-color="#2764E7"/>
</linearGradient>
<linearGradient id="paint3_linear_69_1915" x1="27.9579" y1="16.621" x2="30.8413" y2="40.2187" gradientUnits="userSpaceOnUse">
<stop offset="0.533" stop-color="#FF6CE8" stop-opacity="0"/>
<stop offset="1" stop-color="#FF6CE8"/>
</linearGradient>
<linearGradient id="paint4_linear_69_1915" x1="14.1872" y1="1.342" x2="25.9916" y2="32.2245" gradientUnits="userSpaceOnUse">
<stop stop-color="#6CE0FF"/>
<stop offset="0.462" stop-color="#29C3FF"/>
<stop offset="1" stop-color="#4894FE"/>
</linearGradient>
</defs>
</svg>
